<svg version="1.1" xmlns="http://www.w3.org/2000/svg" xmlns:xlink="http://www.w3.org/1999/xlink" width="58.21083" height="58.21083" viewBox="0,0,58.21083,58.21083"><defs><linearGradient x1="245.78784" y1="152.89459" x2="245.78784" y2="170.1025" gradientUnits="userSpaceOnUse" id="color-1"><stop offset="0" stop-color="#ff0000"/><stop offset="1" stop-color="#890b0b"/></linearGradient><linearGradient x1="247.87627" y1="170.57625" x2="247.87627" y2="207.10542" gradientUnits="userSpaceOnUse" id="color-2"><stop offset="0" stop-color="#51ff00"/><stop offset="1" stop-color="#890b0b"/></linearGradient><linearGradient x1="220.54581" y1="156.98507" x2="220.54581" y2="204.40757" gradientUnits="userSpaceOnUse" id="color-3"><stop offset="0" stop-color="#ffc300"/><stop offset="1" stop-color="#8a590b"/></linearGradient><linearGradient x1="230.53694" y1="159.71869" x2="230.53694" y2="172.78535" gradientUnits="userSpaceOnUse" id="color-4"><stop offset="0" stop-color="#ff0000"/><stop offset="1" stop-color="#8a0b0b"/></linearGradient><linearGradient x1="257.52999" y1="172.98611" x2="257.52999" y2="181.61165" gradientUnits="userSpaceOnUse" id="color-5"><stop offset="0" stop-color="#38ff00"/><stop offset="1" stop-color="#1b8a0b"/></linearGradient><linearGradient x1="235.09907" y1="188.42076" x2="235.09907" y2="203.2477" gradientUnits="userSpaceOnUse" id="color-6"><stop offset="0" stop-color="#ffc300"/><stop offset="1" stop-color="#8a590b"/></linearGradient><linearGradient x1="240" y1="171.13334" x2="240" y2="188.86667" gradientUnits="userSpaceOnUse" id="color-7"><stop offset="0" stop-color="#0036ff"/><stop offset="1" stop-color="#0067ff"/></linearGradient></defs><g transform="translate(-210.89458,-150.89458)"><g data-paper-data="{&quot;isPaintingLayer&quot;:true}" fill="none" fill-rule="nonzero" stroke-width="4" stroke-linejoin="miter" stroke-miterlimit="10" stroke-dasharray="" stroke-dashoffset="0" style="mix-blend-mode: normal"><path d="M226.33411,156.58665c4.01232,-2.34697 8.68203,-3.69206 13.6659,-3.69206c11.47705,0 21.28807,7.13314 25.24157,17.20792" stroke="url(#color-1)" stroke-linecap="butt"/><path d="M265.42234,170.57625c1.08842,2.9351 1.68307,6.10998 1.68307,9.42375c0,14.96991 -12.13551,27.10541 -27.10541,27.10541c-4.05369,0 -7.89955,-0.88986 -11.35288,-2.48489" stroke="url(#color-2)" stroke-linecap="butt"/><path d="M228.19703,204.40757c-9.05697,-4.38784 -15.30244,-13.66835 -15.30244,-24.40757c0,-9.71048 5.10624,-18.22833 12.78009,-23.01493" stroke="url(#color-3)" stroke-linecap="butt"/><path d="M234.26788,172.78535c0,0 1.79987,-7.98539 0.41348,-10.142c-1.4131,-2.19816 -8.81348,-2.92467 -8.81348,-2.92467" stroke="url(#color-4)" stroke-linecap="round"/><path d="M250.51509,179.65412c0,0 7.69126,2.8019 10.00682,1.70137c2.36019,-1.12174 4.02298,-8.36939 4.02298,-8.36939" stroke="url(#color-5)" stroke-linecap="round"/><path d="M231.02862,203.2477c0,0 7.27972,-3.74323 8.04428,-6.19036c0.7793,-2.49428 -3.41184,-8.63657 -3.41184,-8.63657" stroke="url(#color-6)" stroke-linecap="round"/><path d="M231.13334,180c0,-4.89693 3.96974,-8.86667 8.86667,-8.86667c4.89693,0 8.86667,3.96974 8.86667,8.86667c0,4.89693 -3.96974,8.86667 -8.86667,8.86667c-4.89693,0 -8.86667,-3.96974 -8.86667,-8.86667z" stroke="url(#color-7)" stroke-linecap="butt"/></g></g></svg>