<svg version="1.1" xmlns="http://www.w3.org/2000/svg" xmlns:xlink="http://www.w3.org/1999/xlink" width="85.56668" height="120.63942" viewBox="0,0,85.56668,120.63942"><defs><linearGradient x1="221.87037" y1="147.76852" x2="221.87037" y2="154.26852" gradientUnits="userSpaceOnUse" id="color-1"><stop offset="0" stop-color="#6b00ff"/><stop offset="1" stop-color="#ff00ce"/></linearGradient><linearGradient x1="202.16667" y1="149.99074" x2="202.16667" y2="156.49074" gradientUnits="userSpaceOnUse" id="color-2"><stop offset="0" stop-color="#19ff00"/><stop offset="1" stop-color="#6b00ff"/></linearGradient><linearGradient x1="189.57407" y1="152.36111" x2="189.57407" y2="158.86111" gradientUnits="userSpaceOnUse" id="color-3"><stop offset="0" stop-color="#6b00ff"/><stop offset="1" stop-color="#ff00ce"/></linearGradient><linearGradient x1="211.2037" y1="147.91667" x2="211.2037" y2="154.41667" gradientUnits="userSpaceOnUse" id="color-4"><stop offset="0" stop-color="#19ff00"/><stop offset="1" stop-color="#6b00ff"/></linearGradient><linearGradient x1="243.05556" y1="149.25" x2="243.05556" y2="155.75" gradientUnits="userSpaceOnUse" id="color-5"><stop offset="0" stop-color="#6b00ff"/><stop offset="1" stop-color="#ff00ce"/></linearGradient><linearGradient x1="223.35185" y1="151.47222" x2="223.35185" y2="157.97222" gradientUnits="userSpaceOnUse" id="color-6"><stop offset="0" stop-color="#6b00ff"/><stop offset="1" stop-color="#ff00ce"/></linearGradient><linearGradient x1="210.75926" y1="153.84259" x2="210.75926" y2="160.34259" gradientUnits="userSpaceOnUse" id="color-7"><stop offset="0" stop-color="#6b00ff"/><stop offset="1" stop-color="#ff00ce"/></linearGradient><linearGradient x1="232.38889" y1="149.39815" x2="232.38889" y2="155.89815" gradientUnits="userSpaceOnUse" id="color-8"><stop offset="0" stop-color="#6b00ff"/><stop offset="1" stop-color="#ff00ce"/></linearGradient><linearGradient x1="205.72222" y1="153.39815" x2="205.72222" y2="159.89815" gradientUnits="userSpaceOnUse" id="color-9"><stop offset="0" stop-color="#6b00ff"/><stop offset="1" stop-color="#ff00ce"/></linearGradient><linearGradient x1="195.05556" y1="153.54629" x2="195.05556" y2="160.04629" gradientUnits="userSpaceOnUse" id="color-10"><stop offset="0" stop-color="#6b00ff"/><stop offset="1" stop-color="#ff00ce"/></linearGradient><linearGradient x1="219.94444" y1="157.5463" x2="219.94444" y2="164.0463" gradientUnits="userSpaceOnUse" id="color-11"><stop offset="0" stop-color="#6b00ff"/><stop offset="1" stop-color="#ff00ce"/></linearGradient><linearGradient x1="200.24074" y1="159.76852" x2="200.24074" y2="166.26852" gradientUnits="userSpaceOnUse" id="color-12"><stop offset="0" stop-color="#6b00ff"/><stop offset="1" stop-color="#ff00ce"/></linearGradient><linearGradient x1="187.64815" y1="162.13889" x2="187.64815" y2="168.63889" gradientUnits="userSpaceOnUse" id="color-13"><stop offset="0" stop-color="#6b00ff"/><stop offset="1" stop-color="#ff00ce"/></linearGradient><linearGradient x1="209.27778" y1="157.69444" x2="209.27778" y2="164.19444" gradientUnits="userSpaceOnUse" id="color-14"><stop offset="0" stop-color="#6b00ff"/><stop offset="1" stop-color="#ff00ce"/></linearGradient><linearGradient x1="237.87037" y1="139.91667" x2="237.87037" y2="146.41667" gradientUnits="userSpaceOnUse" id="color-15"><stop offset="0" stop-color="#ff7300"/><stop offset="1" stop-color="#ff00ce"/></linearGradient><linearGradient x1="218.16666" y1="142.13889" x2="218.16666" y2="148.63889" gradientUnits="userSpaceOnUse" id="color-16"><stop offset="0" stop-color="#19ff00"/><stop offset="1" stop-color="#6b00ff"/></linearGradient><linearGradient x1="205.57407" y1="144.50926" x2="205.57407" y2="151.00926" gradientUnits="userSpaceOnUse" id="color-17"><stop offset="0" stop-color="#19ff00"/><stop offset="1" stop-color="#6b00ff"/></linearGradient><linearGradient x1="227.2037" y1="140.06482" x2="227.2037" y2="146.56482" gradientUnits="userSpaceOnUse" id="color-18"><stop offset="0" stop-color="#6b00ff"/><stop offset="1" stop-color="#ff00ce"/></linearGradient><linearGradient x1="201.72222" y1="144.36111" x2="201.72222" y2="150.86111" gradientUnits="userSpaceOnUse" id="color-19"><stop offset="0" stop-color="#19ff00"/><stop offset="1" stop-color="#6b00ff"/></linearGradient><linearGradient x1="182.01851" y1="146.58333" x2="182.01851" y2="153.08333" gradientUnits="userSpaceOnUse" id="color-20"><stop offset="0" stop-color="#19ff00"/><stop offset="1" stop-color="#6b00ff"/></linearGradient><linearGradient x1="182.31481" y1="149.84259" x2="182.31481" y2="156.34259" gradientUnits="userSpaceOnUse" id="color-21"><stop offset="0" stop-color="#19ff00"/><stop offset="1" stop-color="#6b00ff"/></linearGradient><linearGradient x1="191.05555" y1="144.50926" x2="191.05555" y2="151.00926" gradientUnits="userSpaceOnUse" id="color-22"><stop offset="0" stop-color="#19ff00"/><stop offset="1" stop-color="#6b00ff"/></linearGradient><linearGradient x1="218.31481" y1="137.69445" x2="218.31481" y2="144.19445" gradientUnits="userSpaceOnUse" id="color-23"><stop offset="0" stop-color="#19ff00"/><stop offset="1" stop-color="#6b00ff"/></linearGradient><linearGradient x1="198.6111" y1="139.91667" x2="198.6111" y2="146.41667" gradientUnits="userSpaceOnUse" id="color-24"><stop offset="0" stop-color="#19ff00"/><stop offset="1" stop-color="#6b00ff"/></linearGradient><linearGradient x1="186.01851" y1="142.28704" x2="186.01851" y2="148.78704" gradientUnits="userSpaceOnUse" id="color-25"><stop offset="0" stop-color="#19ff00"/><stop offset="1" stop-color="#6b00ff"/></linearGradient><linearGradient x1="207.64814" y1="137.84259" x2="207.64814" y2="144.34259" gradientUnits="userSpaceOnUse" id="color-26"><stop offset="0" stop-color="#19ff00"/><stop offset="1" stop-color="#6b00ff"/></linearGradient><linearGradient x1="206.9074" y1="146.73149" x2="206.9074" y2="153.23149" gradientUnits="userSpaceOnUse" id="color-27"><stop offset="0" stop-color="#19ff00"/><stop offset="1" stop-color="#6b00ff"/></linearGradient><linearGradient x1="187.2037" y1="148.95371" x2="187.2037" y2="155.45371" gradientUnits="userSpaceOnUse" id="color-28"><stop offset="0" stop-color="#19ff00"/><stop offset="1" stop-color="#6b00ff"/></linearGradient><linearGradient x1="180.09259" y1="152.50926" x2="180.09259" y2="159.00926" gradientUnits="userSpaceOnUse" id="color-29"><stop offset="0" stop-color="#6b00ff"/><stop offset="1" stop-color="#ff00ce"/></linearGradient><linearGradient x1="196.24074" y1="146.87963" x2="196.24074" y2="153.37963" gradientUnits="userSpaceOnUse" id="color-30"><stop offset="0" stop-color="#19ff00"/><stop offset="1" stop-color="#6b00ff"/></linearGradient><linearGradient x1="222.46296" y1="140.21296" x2="222.46296" y2="146.71296" gradientUnits="userSpaceOnUse" id="color-31"><stop offset="0" stop-color="#6b00ff"/><stop offset="1" stop-color="#ff00ce"/></linearGradient><linearGradient x1="202.75926" y1="142.43518" x2="202.75926" y2="148.93518" gradientUnits="userSpaceOnUse" id="color-32"><stop offset="0" stop-color="#19ff00"/><stop offset="1" stop-color="#6b00ff"/></linearGradient><linearGradient x1="190.16667" y1="144.80555" x2="190.16667" y2="151.30555" gradientUnits="userSpaceOnUse" id="color-33"><stop offset="0" stop-color="#19ff00"/><stop offset="1" stop-color="#6b00ff"/></linearGradient><linearGradient x1="211.7963" y1="140.36111" x2="211.7963" y2="146.86111" gradientUnits="userSpaceOnUse" id="color-34"><stop offset="0" stop-color="#19ff00"/><stop offset="1" stop-color="#6b00ff"/></linearGradient><linearGradient x1="243.64815" y1="141.69444" x2="243.64815" y2="148.19444" gradientUnits="userSpaceOnUse" id="color-35"><stop offset="0" stop-color="#ff7300"/><stop offset="1" stop-color="#ff00ce"/></linearGradient><linearGradient x1="223.94444" y1="143.91666" x2="223.94444" y2="150.41666" gradientUnits="userSpaceOnUse" id="color-36"><stop offset="0" stop-color="#6b00ff"/><stop offset="1" stop-color="#ff00ce"/></linearGradient><linearGradient x1="232.98148" y1="141.84259" x2="232.98148" y2="148.34259" gradientUnits="userSpaceOnUse" id="color-37"><stop offset="0" stop-color="#6b00ff"/><stop offset="1" stop-color="#ff00ce"/></linearGradient><linearGradient x1="238.46296" y1="132.36111" x2="238.46296" y2="138.86111" gradientUnits="userSpaceOnUse" id="color-38"><stop offset="0" stop-color="#ff7300"/><stop offset="1" stop-color="#ff00ce"/></linearGradient><linearGradient x1="218.75925" y1="134.58333" x2="218.75925" y2="141.08333" gradientUnits="userSpaceOnUse" id="color-39"><stop offset="0" stop-color="#19ff00"/><stop offset="1" stop-color="#6b00ff"/></linearGradient><linearGradient x1="206.16666" y1="136.9537" x2="206.16666" y2="143.4537" gradientUnits="userSpaceOnUse" id="color-40"><stop offset="0" stop-color="#19ff00"/><stop offset="1" stop-color="#6b00ff"/></linearGradient><linearGradient x1="227.79629" y1="132.50926" x2="227.79629" y2="139.00926" gradientUnits="userSpaceOnUse" id="color-41"><stop offset="0" stop-color="#6b00ff"/><stop offset="1" stop-color="#ff00ce"/></linearGradient><linearGradient x1="202.31481" y1="136.80556" x2="202.31481" y2="143.30556" gradientUnits="userSpaceOnUse" id="color-42"><stop offset="0" stop-color="#19ff00"/><stop offset="1" stop-color="#6b00ff"/></linearGradient><linearGradient x1="182.6111" y1="139.02778" x2="182.6111" y2="145.52778" gradientUnits="userSpaceOnUse" id="color-43"><stop offset="0" stop-color="#19ff00"/><stop offset="1" stop-color="#6b00ff"/></linearGradient><linearGradient x1="178.31481" y1="148.80556" x2="178.31481" y2="155.30556" gradientUnits="userSpaceOnUse" id="color-44"><stop offset="0" stop-color="#19ff00"/><stop offset="1" stop-color="#6b00ff"/></linearGradient><linearGradient x1="191.64814" y1="136.9537" x2="191.64814" y2="143.4537" gradientUnits="userSpaceOnUse" id="color-45"><stop offset="0" stop-color="#19ff00"/><stop offset="1" stop-color="#6b00ff"/></linearGradient><linearGradient x1="218.9074" y1="130.13889" x2="218.9074" y2="136.63889" gradientUnits="userSpaceOnUse" id="color-46"><stop offset="0" stop-color="#19ff00"/><stop offset="1" stop-color="#6b00ff"/></linearGradient><linearGradient x1="199.2037" y1="132.36111" x2="199.2037" y2="138.86111" gradientUnits="userSpaceOnUse" id="color-47"><stop offset="0" stop-color="#19ff00"/><stop offset="1" stop-color="#6b00ff"/></linearGradient><linearGradient x1="186.61111" y1="134.73148" x2="186.61111" y2="141.23148" gradientUnits="userSpaceOnUse" id="color-48"><stop offset="0" stop-color="#19ff00"/><stop offset="1" stop-color="#6b00ff"/></linearGradient><linearGradient x1="208.24074" y1="130.28704" x2="208.24074" y2="136.78704" gradientUnits="userSpaceOnUse" id="color-49"><stop offset="0" stop-color="#19ff00"/><stop offset="1" stop-color="#6b00ff"/></linearGradient><linearGradient x1="207.49999" y1="139.17593" x2="207.49999" y2="145.67593" gradientUnits="userSpaceOnUse" id="color-50"><stop offset="0" stop-color="#19ff00"/><stop offset="1" stop-color="#6b00ff"/></linearGradient><linearGradient x1="187.79629" y1="141.39815" x2="187.79629" y2="147.89815" gradientUnits="userSpaceOnUse" id="color-51"><stop offset="0" stop-color="#19ff00"/><stop offset="1" stop-color="#6b00ff"/></linearGradient><linearGradient x1="183.49999" y1="147.32408" x2="183.49999" y2="153.82408" gradientUnits="userSpaceOnUse" id="color-52"><stop offset="0" stop-color="#19ff00"/><stop offset="1" stop-color="#6b00ff"/></linearGradient><linearGradient x1="196.83333" y1="139.32407" x2="196.83333" y2="145.82407" gradientUnits="userSpaceOnUse" id="color-53"><stop offset="0" stop-color="#19ff00"/><stop offset="1" stop-color="#6b00ff"/></linearGradient><linearGradient x1="199.01389" y1="195.61111" x2="199.01389" y2="216.61111" gradientUnits="userSpaceOnUse" id="color-54"><stop offset="0" stop-color="#00ffb9"/><stop offset="1" stop-color="#ffbd00"/></linearGradient><linearGradient x1="194.63889" y1="195.65704" x2="194.63889" y2="214.05693" gradientUnits="userSpaceOnUse" id="color-55"><stop offset="0" stop-color="#00ffb9"/><stop offset="1" stop-color="#ffbd00"/></linearGradient><linearGradient x1="198.91667" y1="190.94444" x2="198.91667" y2="204.36111" gradientUnits="userSpaceOnUse" id="color-56"><stop offset="0" stop-color="#00ffb9"/><stop offset="1" stop-color="#ffbd00"/></linearGradient><linearGradient x1="198.72222" y1="209.02778" x2="198.72222" y2="222.44444" gradientUnits="userSpaceOnUse" id="color-57"><stop offset="0" stop-color="#00ffb9"/><stop offset="1" stop-color="#ffbd00"/></linearGradient><linearGradient x1="186.01852" y1="155.62037" x2="186.01852" y2="162.12037" gradientUnits="userSpaceOnUse" id="color-58"><stop offset="0" stop-color="#6b00ff"/><stop offset="1" stop-color="#ff00ce"/></linearGradient><linearGradient x1="176.38889" y1="157.25" x2="176.38889" y2="163.75" gradientUnits="userSpaceOnUse" id="color-59"><stop offset="0" stop-color="#6b00ff"/><stop offset="1" stop-color="#ff00ce"/></linearGradient><linearGradient x1="199.00926" y1="163.38889" x2="199.00926" y2="241.38889" gradientUnits="userSpaceOnUse" id="color-60"><stop offset="0" stop-color="#00ffb9"/><stop offset="1" stop-color="#ffbd00"/></linearGradient><linearGradient x1="235.5" y1="163" x2="235.5" y2="241" gradientUnits="userSpaceOnUse" id="color-61"><stop offset="0" stop-color="#04feb6"/><stop offset="1" stop-color="#f5c008"/></linearGradient><linearGradient x1="235.5" y1="163" x2="235.5" y2="241" gradientUnits="userSpaceOnUse" id="color-62"><stop offset="0" stop-color="#00ffb9"/><stop offset="1" stop-color="#ffbd00"/></linearGradient></defs><g transform="translate(-166.53814,-127.13889)"><g data-paper-data="{&quot;isPaintingLayer&quot;:true}" fill-rule="nonzero" stroke-linejoin="miter" stroke-miterlimit="10" stroke-dasharray="" stroke-dashoffset="0" style="mix-blend-mode: normal"><path d="M226.62037,151.01852c0,1.65685 -2.12665,3 -4.75,3c-2.62335,0 -4.75,-1.34315 -4.75,-3c0,-1.65685 2.12665,-3 4.75,-3c2.62335,0 4.75,1.34315 4.75,3z" fill="none" stroke="url(#color-1)" stroke-width="6.5" stroke-linecap="butt"/><path d="M206.91667,153.24074c0,1.65686 -2.12664,3 -4.75,3c-2.62336,0 -4.75,-1.34314 -4.75,-3c0,-1.65686 2.12664,-3 4.75,-3c2.62336,0 4.75,1.34314 4.75,3z" fill="none" stroke="url(#color-2)" stroke-width="6.5" stroke-linecap="butt"/><path d="M194.32407,155.61111c0,1.65686 -2.12664,3 -4.75,3c-2.62336,0 -4.75,-1.34314 -4.75,-3c0,-1.65686 2.12664,-3 4.75,-3c2.62336,0 4.75,1.34314 4.75,3z" fill="none" stroke="url(#color-3)" stroke-width="6.5" stroke-linecap="butt"/><path d="M215.9537,151.16667c0,1.65686 -2.12664,3 -4.75,3c-2.62336,0 -4.75,-1.34314 -4.75,-3c0,-1.65686 2.12664,-3 4.75,-3c2.62336,0 4.75,1.34314 4.75,3z" fill="none" stroke="url(#color-4)" stroke-width="6.5" stroke-linecap="butt"/><path d="M247.80556,152.5c0,1.65686 -2.12664,3 -4.75,3c-2.62336,0 -4.75,-1.34314 -4.75,-3c0,-1.65686 2.12664,-3 4.75,-3c2.62336,0 4.75,1.34314 4.75,3z" fill="none" stroke="url(#color-5)" stroke-width="6.5" stroke-linecap="butt"/><path d="M228.10185,154.72222c0,1.65686 -2.12664,3 -4.75,3c-2.62336,0 -4.75,-1.34314 -4.75,-3c0,-1.65686 2.12664,-3 4.75,-3c2.62336,0 4.75,1.34314 4.75,3z" fill="none" stroke="url(#color-6)" stroke-width="6.5" stroke-linecap="butt"/><path d="M215.50926,157.09259c0,1.65686 -2.12664,3 -4.75,3c-2.62336,0 -4.75,-1.34314 -4.75,-3c0,-1.65686 2.12664,-3 4.75,-3c2.62336,0 4.75,1.34314 4.75,3z" fill="none" stroke="url(#color-7)" stroke-width="6.5" stroke-linecap="butt"/><path d="M237.13889,152.64815c0,1.65686 -2.12664,3 -4.75,3c-2.62336,0 -4.75,-1.34314 -4.75,-3c0,-1.65686 2.12664,-3 4.75,-3c2.62336,0 4.75,1.34314 4.75,3z" fill="none" stroke="url(#color-8)" stroke-width="6.5" stroke-linecap="butt"/><path d="M210.47222,156.64815c0,1.65686 -2.12664,3 -4.75,3c-2.62336,0 -4.75,-1.34314 -4.75,-3c0,-1.65686 2.12664,-3 4.75,-3c2.62336,0 4.75,1.34314 4.75,3z" fill="none" stroke="url(#color-9)" stroke-width="6.5" stroke-linecap="butt"/><path d="M199.80556,156.79629c0,1.65686 -2.12664,3 -4.75,3c-2.62336,0 -4.75,-1.34314 -4.75,-3c0,-1.65686 2.12664,-3 4.75,-3c2.62336,0 4.75,1.34314 4.75,3z" fill="none" stroke="url(#color-10)" stroke-width="6.5" stroke-linecap="butt"/><path d="M224.69444,160.7963c0,1.65686 -2.12664,3 -4.75,3c-2.62336,0 -4.75,-1.34314 -4.75,-3c0,-1.65686 2.12664,-3 4.75,-3c2.62336,0 4.75,1.34314 4.75,3z" fill="none" stroke="url(#color-11)" stroke-width="6.5" stroke-linecap="butt"/><path d="M204.99074,163.01852c0,1.65686 -2.12664,3 -4.75,3c-2.62336,0 -4.75,-1.34314 -4.75,-3c0,-1.65686 2.12664,-3 4.75,-3c2.62336,0 4.75,1.34314 4.75,3z" fill="none" stroke="url(#color-12)" stroke-width="6.5" stroke-linecap="butt"/><path d="M192.39815,165.38889c0,1.65686 -2.12664,3 -4.75,3c-2.62336,0 -4.75,-1.34314 -4.75,-3c0,-1.65686 2.12664,-3 4.75,-3c2.62336,0 4.75,1.34314 4.75,3z" fill="none" stroke="url(#color-13)" stroke-width="6.5" stroke-linecap="butt"/><path d="M214.02778,160.94444c0,1.65686 -2.12664,3 -4.75,3c-2.62336,0 -4.75,-1.34314 -4.75,-3c0,-1.65686 2.12664,-3 4.75,-3c2.62336,0 4.75,1.34314 4.75,3z" fill="none" stroke="url(#color-14)" stroke-width="6.5" stroke-linecap="butt"/><path d="M242.62037,143.16667c0,1.65686 -2.12664,3 -4.75,3c-2.62336,0 -4.75,-1.34314 -4.75,-3c0,-1.65686 2.12664,-3 4.75,-3c2.62336,0 4.75,1.34314 4.75,3z" fill="none" stroke="url(#color-15)" stroke-width="6.5" stroke-linecap="butt"/><path d="M222.91666,145.38889c0,1.65686 -2.12664,3 -4.75,3c-2.62336,0 -4.75,-1.34314 -4.75,-3c0,-1.65686 2.12664,-3 4.75,-3c2.62336,0 4.75,1.34314 4.75,3z" fill="none" stroke="url(#color-16)" stroke-width="6.5" stroke-linecap="butt"/><path d="M210.32407,147.75926c0,1.65686 -2.12664,3 -4.75,3c-2.62336,0 -4.75,-1.34314 -4.75,-3c0,-1.65686 2.12664,-3 4.75,-3c2.62336,0 4.75,1.34314 4.75,3z" fill="none" stroke="url(#color-17)" stroke-width="6.5" stroke-linecap="butt"/><path d="M231.9537,143.31482c0,1.65686 -2.12664,3 -4.75,3c-2.62336,0 -4.75,-1.34314 -4.75,-3c0,-1.65686 2.12664,-3 4.75,-3c2.62336,0 4.75,1.34314 4.75,3z" fill="none" stroke="url(#color-18)" stroke-width="6.5" stroke-linecap="butt"/><path d="M206.47222,147.61111c0,1.65686 -2.12664,3 -4.75,3c-2.62336,0 -4.75,-1.34314 -4.75,-3c0,-1.65686 2.12664,-3 4.75,-3c2.62336,0 4.75,1.34314 4.75,3z" fill="none" stroke="url(#color-19)" stroke-width="6.5" stroke-linecap="butt"/><path d="M186.76851,149.83333c0,1.65686 -2.12664,3 -4.75,3c-2.62336,0 -4.75,-1.34314 -4.75,-3c0,-1.65686 2.12664,-3 4.75,-3c2.62336,0 4.75,1.34314 4.75,3z" fill="none" stroke="url(#color-20)" stroke-width="6.5" stroke-linecap="butt"/><path d="M187.06481,153.09259c0,1.65686 -2.12664,3 -4.75,3c-2.62336,0 -4.75,-1.34314 -4.75,-3c0,-1.65686 2.12664,-3 4.75,-3c2.62336,0 4.75,1.34314 4.75,3z" fill="none" stroke="url(#color-21)" stroke-width="6.5" stroke-linecap="butt"/><path d="M195.80555,147.75926c0,1.65686 -2.12664,3 -4.75,3c-2.62336,0 -4.75,-1.34314 -4.75,-3c0,-1.65686 2.12664,-3 4.75,-3c2.62336,0 4.75,1.34314 4.75,3z" fill="none" stroke="url(#color-22)" stroke-width="6.5" stroke-linecap="butt"/><path d="M223.06481,140.94445c0,1.65686 -2.12664,3 -4.75,3c-2.62336,0 -4.75,-1.34314 -4.75,-3c0,-1.65686 2.12664,-3 4.75,-3c2.62336,0 4.75,1.34314 4.75,3z" fill="none" stroke="url(#color-23)" stroke-width="6.5" stroke-linecap="butt"/><path d="M203.3611,143.16667c0,1.65686 -2.12664,3 -4.75,3c-2.62336,0 -4.75,-1.34314 -4.75,-3c0,-1.65686 2.12664,-3 4.75,-3c2.62336,0 4.75,1.34314 4.75,3z" fill="none" stroke="url(#color-24)" stroke-width="6.5" stroke-linecap="butt"/><path d="M190.76851,145.53704c0,1.65686 -2.12664,3 -4.75,3c-2.62336,0 -4.75,-1.34314 -4.75,-3c0,-1.65686 2.12664,-3 4.75,-3c2.62336,0 4.75,1.34314 4.75,3z" fill="none" stroke="url(#color-25)" stroke-width="6.5" stroke-linecap="butt"/><path d="M212.39814,141.09259c0,1.65686 -2.12664,3 -4.75,3c-2.62336,0 -4.75,-1.34314 -4.75,-3c0,-1.65686 2.12664,-3 4.75,-3c2.62336,0 4.75,1.34314 4.75,3z" fill="none" stroke="url(#color-26)" stroke-width="6.5" stroke-linecap="butt"/><path d="M211.6574,149.98149c0,1.65686 -2.12664,3 -4.75,3c-2.62336,0 -4.75,-1.34314 -4.75,-3c0,-1.65686 2.12664,-3 4.75,-3c2.62336,0 4.75,1.34314 4.75,3z" fill="none" stroke="url(#color-27)" stroke-width="6.5" stroke-linecap="butt"/><path d="M191.9537,152.20371c0,1.65686 -2.12664,3 -4.75,3c-2.62336,0 -4.75,-1.34314 -4.75,-3c0,-1.65686 2.12664,-3 4.75,-3c2.62336,0 4.75,1.34314 4.75,3z" fill="none" stroke="url(#color-28)" stroke-width="6.5" stroke-linecap="butt"/><path d="M184.84259,155.75926c0,1.65686 -2.12664,3 -4.75,3c-2.62336,0 -4.75,-1.34314 -4.75,-3c0,-1.65686 2.12664,-3 4.75,-3c2.62336,0 4.75,1.34314 4.75,3z" fill="none" stroke="url(#color-29)" stroke-width="6.5" stroke-linecap="butt"/><path d="M200.99074,150.12963c0,1.65686 -2.12664,3 -4.75,3c-2.62336,0 -4.75,-1.34314 -4.75,-3c0,-1.65686 2.12664,-3 4.75,-3c2.62336,0 4.75,1.34314 4.75,3z" fill="none" stroke="url(#color-30)" stroke-width="6.5" stroke-linecap="butt"/><path d="M227.21296,143.46296c0,1.65686 -2.12664,3 -4.75,3c-2.62336,0 -4.75,-1.34314 -4.75,-3c0,-1.65686 2.12664,-3 4.75,-3c2.62336,0 4.75,1.34314 4.75,3z" fill="none" stroke="url(#color-31)" stroke-width="6.5" stroke-linecap="butt"/><path d="M207.50926,145.68518c0,1.65686 -2.12664,3 -4.75,3c-2.62336,0 -4.75,-1.34314 -4.75,-3c0,-1.65686 2.12664,-3 4.75,-3c2.62336,0 4.75,1.34314 4.75,3z" fill="none" stroke="url(#color-32)" stroke-width="6.5" stroke-linecap="butt"/><path d="M194.91667,148.05555c0,1.65686 -2.12664,3 -4.75,3c-2.62336,0 -4.75,-1.34314 -4.75,-3c0,-1.65686 2.12664,-3 4.75,-3c2.62336,0 4.75,1.34314 4.75,3z" fill="none" stroke="url(#color-33)" stroke-width="6.5" stroke-linecap="butt"/><path d="M216.5463,143.61111c0,1.65686 -2.12664,3 -4.75,3c-2.62336,0 -4.75,-1.34314 -4.75,-3c0,-1.65686 2.12664,-3 4.75,-3c2.62336,0 4.75,1.34314 4.75,3z" fill="none" stroke="url(#color-34)" stroke-width="6.5" stroke-linecap="butt"/><path d="M248.39815,144.94444c0,1.65686 -2.12664,3 -4.75,3c-2.62336,0 -4.75,-1.34314 -4.75,-3c0,-1.65686 2.12664,-3 4.75,-3c2.62336,0 4.75,1.34314 4.75,3z" fill="none" stroke="url(#color-35)" stroke-width="6.5" stroke-linecap="butt"/><path d="M228.69444,147.16666c0,1.65686 -2.12664,3 -4.75,3c-2.62336,0 -4.75,-1.34314 -4.75,-3c0,-1.65686 2.12664,-3 4.75,-3c2.62336,0 4.75,1.34314 4.75,3z" fill="none" stroke="url(#color-36)" stroke-width="6.5" stroke-linecap="butt"/><path d="M237.73148,145.09259c0,1.65686 -2.12664,3 -4.75,3c-2.62336,0 -4.75,-1.34314 -4.75,-3c0,-1.65686 2.12664,-3 4.75,-3c2.62336,0 4.75,1.34314 4.75,3z" fill="none" stroke="url(#color-37)" stroke-width="6.5" stroke-linecap="butt"/><path d="M243.21296,135.61111c0,1.65686 -2.12664,3 -4.75,3c-2.62336,0 -4.75,-1.34314 -4.75,-3c0,-1.65686 2.12664,-3 4.75,-3c2.62336,0 4.75,1.34314 4.75,3z" fill="none" stroke="url(#color-38)" stroke-width="6.5" stroke-linecap="butt"/><path d="M223.50925,137.83333c0,1.65686 -2.12664,3 -4.75,3c-2.62336,0 -4.75,-1.34314 -4.75,-3c0,-1.65686 2.12664,-3 4.75,-3c2.62336,0 4.75,1.34314 4.75,3z" fill="none" stroke="url(#color-39)" stroke-width="6.5" stroke-linecap="butt"/><path d="M210.91666,140.2037c0,1.65686 -2.12664,3 -4.75,3c-2.62336,0 -4.75,-1.34314 -4.75,-3c0,-1.65686 2.12664,-3 4.75,-3c2.62336,0 4.75,1.34314 4.75,3z" fill="none" stroke="url(#color-40)" stroke-width="6.5" stroke-linecap="butt"/><path d="M232.54629,135.75926c0,1.65686 -2.12664,3 -4.75,3c-2.62336,0 -4.75,-1.34314 -4.75,-3c0,-1.65686 2.12664,-3 4.75,-3c2.62336,0 4.75,1.34314 4.75,3z" fill="none" stroke="url(#color-41)" stroke-width="6.5" stroke-linecap="butt"/><path d="M207.06481,140.05556c0,1.65686 -2.12664,3 -4.75,3c-2.62336,0 -4.75,-1.34314 -4.75,-3c0,-1.65686 2.12664,-3 4.75,-3c2.62336,0 4.75,1.34314 4.75,3z" fill="none" stroke="url(#color-42)" stroke-width="6.5" stroke-linecap="butt"/><path d="M187.3611,142.27778c0,1.65686 -2.12664,3 -4.75,3c-2.62336,0 -4.75,-1.34314 -4.75,-3c0,-1.65686 2.12664,-3 4.75,-3c2.62336,0 4.75,1.34314 4.75,3z" fill="none" stroke="url(#color-43)" stroke-width="6.5" stroke-linecap="butt"/><path d="M183.06481,152.05556c0,1.65686 -2.12664,3 -4.75,3c-2.62336,0 -4.75,-1.34314 -4.75,-3c0,-1.65686 2.12664,-3 4.75,-3c2.62336,0 4.75,1.34314 4.75,3z" fill="none" stroke="url(#color-44)" stroke-width="6.5" stroke-linecap="butt"/><path d="M196.39814,140.2037c0,1.65686 -2.12664,3 -4.75,3c-2.62336,0 -4.75,-1.34314 -4.75,-3c0,-1.65686 2.12664,-3 4.75,-3c2.62336,0 4.75,1.34314 4.75,3z" fill="none" stroke="url(#color-45)" stroke-width="6.5" stroke-linecap="butt"/><path d="M223.6574,133.38889c0,1.65686 -2.12664,3 -4.75,3c-2.62336,0 -4.75,-1.34314 -4.75,-3c0,-1.65686 2.12664,-3 4.75,-3c2.62336,0 4.75,1.34314 4.75,3z" fill="none" stroke="url(#color-46)" stroke-width="6.5" stroke-linecap="butt"/><path d="M203.9537,135.61111c0,1.65686 -2.12664,3 -4.75,3c-2.62336,0 -4.75,-1.34314 -4.75,-3c0,-1.65686 2.12664,-3 4.75,-3c2.62336,0 4.75,1.34314 4.75,3z" fill="none" stroke="url(#color-47)" stroke-width="6.5" stroke-linecap="butt"/><path d="M191.36111,137.98148c0,1.65686 -2.12664,3 -4.75,3c-2.62336,0 -4.75,-1.34314 -4.75,-3c0,-1.65686 2.12664,-3 4.75,-3c2.62336,0 4.75,1.34314 4.75,3z" fill="none" stroke="url(#color-48)" stroke-width="6.5" stroke-linecap="butt"/><path d="M212.99074,133.53704c0,1.65686 -2.12664,3 -4.75,3c-2.62336,0 -4.75,-1.34314 -4.75,-3c0,-1.65686 2.12664,-3 4.75,-3c2.62336,0 4.75,1.34314 4.75,3z" fill="none" stroke="url(#color-49)" stroke-width="6.5" stroke-linecap="butt"/><path d="M212.24999,142.42593c0,1.65686 -2.12664,3 -4.75,3c-2.62336,0 -4.75,-1.34314 -4.75,-3c0,-1.65686 2.12664,-3 4.75,-3c2.62336,0 4.75,1.34314 4.75,3z" fill="none" stroke="url(#color-50)" stroke-width="6.5" stroke-linecap="butt"/><path d="M192.54629,144.64815c0,1.65686 -2.12664,3 -4.75,3c-2.62336,0 -4.75,-1.34314 -4.75,-3c0,-1.65686 2.12664,-3 4.75,-3c2.62336,0 4.75,1.34314 4.75,3z" fill="none" stroke="url(#color-51)" stroke-width="6.5" stroke-linecap="butt"/><path d="M188.24999,150.57408c0,1.65686 -2.12664,3 -4.75,3c-2.62336,0 -4.75,-1.34314 -4.75,-3c0,-1.65686 2.12664,-3 4.75,-3c2.62336,0 4.75,1.34314 4.75,3z" fill="none" stroke="url(#color-52)" stroke-width="6.5" stroke-linecap="butt"/><path d="M201.58333,142.57407c0,1.65686 -2.12664,3 -4.75,3c-2.62336,0 -4.75,-1.34314 -4.75,-3c0,-1.65686 2.12664,-3 4.75,-3c2.62336,0 4.75,1.34314 4.75,3z" fill="none" stroke="url(#color-53)" stroke-width="6.5" stroke-linecap="butt"/><path d="M205.59065,197.543c2.90359,1.9025 4.79824,5.03107 4.79824,8.56811c0,5.79899 -5.09276,10.5 -11.375,10.5c-0.11586,0 -0.23131,-0.0016 -0.34633,-0.00477" fill="none" stroke="url(#color-54)" stroke-width="6.5" stroke-linecap="butt"/><path d="M191.57764,214.05693c-2.41234,-1.92537 -3.93875,-4.77105 -3.93875,-7.94581c0,-5.46559 4.52401,-9.95583 10.304,-10.45407l3.696,0.92629" fill="none" stroke="url(#color-55)" stroke-width="6.5" stroke-linecap="butt"/><path d="M196.38889,190.94444l5.05556,5.69192l-4.86111,7.72475" fill="none" stroke="url(#color-56)" stroke-width="6.5" stroke-linecap="round"/><path d="M201.05556,222.44444l-4.86111,-7.72475l5.05556,-5.69192" data-paper-data="{&quot;index&quot;:null}" fill="none" stroke="url(#color-57)" stroke-width="6.5" stroke-linecap="round"/><path d="M190.76852,158.87037c0,1.65686 -2.12664,3 -4.75,3c-2.62336,0 -4.75,-1.34314 -4.75,-3c0,-1.65686 2.12664,-3 4.75,-3c2.62336,0 4.75,1.34314 4.75,3z" fill="none" stroke="url(#color-58)" stroke-width="6.5" stroke-linecap="butt"/><path d="M181.13889,160.5c0,1.65686 -2.12664,3 -4.75,3c-2.62336,0 -4.75,-1.34314 -4.75,-3c0,-1.65686 2.12664,-3 4.75,-3c2.62336,0 4.75,1.34314 4.75,3z" fill="none" stroke="url(#color-59)" stroke-width="6.5" stroke-linecap="butt"/><path d="M225.00926,163.38889l-4.5,76.98702l-47.5,1.01298l2.5,-73.44156z" fill="none" stroke="url(#color-60)" stroke-width="12.5" stroke-linecap="round"/><path d="M225.25,163h19.09589l1.40411,75.90604l-19.65753,2.09396" fill="url(#color-61)" stroke="url(#color-62)" stroke-width="12.5" stroke-linecap="round"/></g></g></svg>